{
  "accessors": [
    {
      "bufferView": 2,
      "componentType": 5126,
      "count": 2896,
      "max": [4112.1259765625, 3715.8740234375, 4341.3857421875],
      "min": [0, 0, 0],
      "type": "VEC3"
    },
    {
      "bufferView": 2,
      "byteOffset": 34752,
      "componentType": 5126,
      "count": 2896,
      "max": [0.97930514812469482, 0.99990427494049072, 0.99797707796096802],
      "min": [-0.99993503093719482, -0.99990427494049072, -0.99869275093078613],
      "type": "VEC3"
    },
    {
      "bufferView": 3,
      "componentType": 5126,
      "count": 2896,
      "max": [0.99523800611495972, 0.99932169914245605, 0.98715716600418091, 1],
      "min": [-0.99160140752792358, -1, -0.97507667541503906, -1],
      "type": "VEC4"
    },
    {
      "bufferView": 1,
      "componentType": 5126,
      "count": 2896,
      "max": [1, 1],
      "min": [0, 0],
      "type": "VEC2"
    },
    {
      "bufferView": 0,
      "componentType": 5125,
      "count": 2970,
      "max": [2895],
      "min": [0],
      "type": "SCALAR"
    }
  ],
  "asset": {
    "extras": {
      "author": "Warrior364 (https://sketchfab.com/Warrior364)",
      "license": "CC-BY-4.0 (http://creativecommons.org/licenses/by/4.0/)",
      "source": "https://sketchfab.com/models/062f9773cb5b43338a60780e1e61c4bc",
      "title": "The Legend Of Zelda Majoras Mask 3D - Moon"
    },
    "generator": "Sketchfab-3.18.5",
    "version": "2.0"
  },
  "bufferViews": [
    {
      "buffer": 0,
      "byteLength": 11880,
      "byteOffset": 0,
      "name": "floatBufferViews",
      "target": 34963
    },
    {
      "buffer": 0,
      "byteLength": 23168,
      "byteOffset": 11880,
      "byteStride": 8,
      "name": "floatBufferViews",
      "target": 34962
    },
    {
      "buffer": 0,
      "byteLength": 69504,
      "byteOffset": 35048,
      "byteStride": 12,
      "name": "floatBufferViews",
      "target": 34962
    },
    {
      "buffer": 0,
      "byteLength": 46336,
      "byteOffset": 104552,
      "byteStride": 16,
      "name": "floatBufferViews",
      "target": 34962
    }
  ],
  "buffers": [
    {
      "byteLength": 150888,
      "uri": "moon.bin"
    }
  ],
  "images": [
    {
      "uri": "textures/material_02FDF718_baseColor.png"
    },
    {
      "uri": "textures/material_02FDF718_emissive.png"
    }
  ],
  "materials": [
    {
      "doubleSided": true,
      "emissiveFactor": [0, 0, 0],
      "emissiveTexture": {
        "index": 1,
        "texCoord": 0
      },
      "name": "material_02FDF718",
      "pbrMetallicRoughness": {
        "baseColorFactor": [1, 1, 1, 1],
        "baseColorTexture": {
          "index": 0,
          "texCoord": 0
        },
        "metallicFactor": 0,
        "roughnessFactor": 1
      }
    }
  ],
  "meshes": [
    {
      "primitives": [
        {
          "attributes": {
            "NORMAL": 1,
            "POSITION": 0,
            "TANGENT": 2,
            "TEXCOORD_0": 3
          },
          "indices": 4,
          "material": 0,
          "mode": 4
        }
      ]
    }
  ],
  "nodes": [
    {
      "children": [1],
      "name": "RootNode (gltf orientation matrix)",
      "rotation": [-0.70710678118654746, -0, -0, 0.70710678118654757]
    },
    {
      "children": [2],
      "matrix": [
        0.0076679149642586708, 0, 0.99997061491012573, 0, -0.99997061491012573,
        0, 0.0076679149642586708, 0, 0, -1, 0, 0, -65.715263366699219,
        114.6290283203125, 180.85014343261719, 1
      ],
      "name": "RootNode (model correction matrix)"
    },
    {
      "children": [3],
      "matrix": [
        1, 0, 0, 0, 0, 1, 0, 0, 0, 0, 1, 0, -2122.2841796875, -1857.93701171875,
        -2056.06298828125, 1
      ],
      "name": "moon.obj.cleaner.materialmerger.gles"
    },
    {
      "children": [4],
      "name": ""
    },
    {
      "mesh": 0,
      "name": ""
    }
  ],
  "samplers": [
    {
      "magFilter": 9729,
      "minFilter": 9987,
      "wrapS": 10497,
      "wrapT": 10497
    }
  ],
  "scene": 0,
  "scenes": [
    {
      "name": "OSG_Scene",
      "nodes": [0]
    }
  ],
  "textures": [
    {
      "sampler": 0,
      "source": 0
    },
    {
      "sampler": 0,
      "source": 1
    }
  ]
}
